<svg class="img-fluid" id="outputsvg" xmlns="http://www.w3.org/2000/svg" style="transform: none; transform-origin: 50% 50%; cursor: move; max-height: none;" width="570" height="570" viewBox="0 0 5700 5700"><g id="l2owHBtIUzrp7csu07iFySr" fill="rgb(255,84,64)" style="transform: none;"><g style="transform: none;"><path id="pd3T1rdjo" d="M870 5690 c-383 -35 -717 -312 -824 -684 -15 -49 -31 -139 -36 -200 -13 -150 -13 -3762 0 -3912 35 -397 282 -714 657 -842 139 -48 90 -47 2183 -47 2093 0 2044 -1 2183 47 375 128 622 445 657 842 13 150 13 3762 0 3912 -43 480 -400 842 -873 884 -132 12 -3816 11 -3947 0z m1264 -314 c71 -35 133 -99 170 -176 l31 -65 3 -411 c2 -266 -1 -421 -8 -438 -6 -18 -24 -33 -50 -44 l-40 -17 0 -125 0 -126 34 -12 c66 -24 65 -23 68 -414 l3 -353 513 -3 512 -2 0 933 c0 631 4 952 11 992 21 113 89 204 194 258 50 26 71 31 130 32 61 0 78 -5 133 -34 78 -42 144 -114 174 -189 l23 -57 3 -1810 c2 -1149 -1 -1847 -7 -1910 -42 -420 -280 -773 -651 -968 -280 -148 -594 -172 -890 -69 -349 121 -632 408 -750 760 -64 190 -61 82 -60 2123 0 2057 -5 1906 67 2009 95 134 253 182 387 116z"></path><path id="paVN65KDw" d="M2817 2523 l-478 -3 3 -583 c4 -572 4 -583 26 -641 59 -159 180 -270 339 -311 73 -19 220 -19 302 0 175 42 324 205 352 385 5 39 8 283 7 610 l-3 545 -35 0 c-19 0 -250 -1 -513 -2z"></path></g></g><g id="l5kSPiVZUNhqaFwTryoRX3P" fill="rgb(1,0,0)" style="transform: none;"><g style="transform: none;"><path id="p16pdtHtFt" d="M1899 5425 c-105 -34 -203 -133 -234 -239 -13 -43 -15 -301 -15 -1935 -1 -2074 -4 -1962 60 -2153 104 -310 321 -556 618 -702 179 -88 322 -121 527 -121 219 1 378 39 555 132 371 195 609 548 651 968 6 64 9 771 7 1940 l-3 1840 -23 57 c-30 75 -96 147 -174 189 -60 32 -68 34 -163 34 -93 0 -104 -2 -160 -32 -105 -54 -173 -145 -194 -258 -7 -40 -11 -361 -11 -992 l0 -933 -482 2 -483 3 -2 350 c-2 258 -6 356 -15 374 -7 13 -29 31 -48 40 -20 9 -36 21 -35 26 0 14 -37 18 -68 6 -15 -6 -36 -25 -47 -43 -19 -32 -20 -51 -20 -461 0 -480 1 -486 65 -513 31 -12 126 -14 670 -12 l635 3 27 28 28 27 5 1029 5 1028 28 37 c35 46 85 71 121 62 45 -11 104 -79 111 -128 3 -24 5 -871 3 -1883 l-3 -1840 -23 -80 c-59 -209 -150 -365 -290 -496 -252 -238 -586 -329 -897 -244 -362 99 -633 380 -727 755 l-22 85 -3 1849 -4 1849 22 43 c22 47 59 78 102 89 36 10 99 -28 126 -75 20 -37 21 -49 21 -449 0 -442 2 -460 51 -495 28 -19 79 -21 79 -3 0 6 18 20 40 29 26 11 44 26 50 44 7 17 10 182 8 468 l-3 441 -31 65 c-37 78 -99 141 -173 177 -67 33 -190 41 -262 18z"></path><path id="ptDqP9LTK" d="M2188 2700 c-50 -38 -49 -34 -46 -716 4 -631 4 -640 27 -714 67 -222 230 -390 458 -472 81 -28 298 -36 402 -14 122 26 231 87 331 186 93 92 142 170 182 287 23 68 23 70 26 718 2 357 0 660 -3 673 -3 13 -18 35 -32 48 l-26 24 -647 0 c-628 0 -648 -1 -672 -20z m1152 -728 c0 -288 -4 -544 -10 -577 -29 -177 -179 -339 -351 -380 -253 -59 -490 67 -581 311 -22 58 -22 70 -26 611 l-3 553 478 2 c263 2 481 2 486 0 4 -2 7 -236 7 -520z"></path></g></g><g id="l4h8fdJZeW4DufviRfHzQK0" fill="rgb(255,255,254)" style="transform: none;"><g style="transform: none;"><path id="p1GRxtJSMM" d="M3675 5240 c-46 -10 -71 -27 -102 -67 l-28 -36 -5 -1028 -5 -1029 -28 -27 -27 -28 -605 -3 c-518 -2 -609 0 -640 12 -64 27 -65 36 -65 483 0 378 1 400 20 430 11 18 34 39 52 46 l33 14 -3 94 -3 94 -32 15 c-66 31 -67 38 -67 499 0 402 -1 414 -21 451 -31 55 -87 83 -153 78 -66 -5 -107 -34 -135 -92 l-22 -43 4 -1879 3 -1879 22 -85 c59 -235 177 -422 355 -565 260 -209 615 -278 932 -180 259 80 485 271 602 510 50 100 57 120 85 225 l23 85 0 1900 0 1900 -22 31 c-41 58 -108 87 -168 74z m-172 -2574 c14 -13 29 -35 32 -48 3 -13 5 -302 3 -643 -3 -616 -4 -620 -26 -688 -40 -117 -89 -195 -182 -287 -100 -99 -209 -160 -331 -186 -98 -21 -261 -14 -342 15 -226 80 -391 249 -458 471 -23 74 -23 85 -27 684 -3 650 -4 648 46 686 24 19 43 20 642 20 l617 0 26 -24z"></path></g></g></svg>