<svg id="Filled" height="512" viewBox="0 0 512 512" width="512" xmlns="http://www.w3.org/2000/svg"><path d="m344 192c0 112-48 216-48 216h-80s-48-104-48-216c0-128 88-168 88-168s88 40 88 168z" fill="#3a98e4"/><path d="m333.17 120h-154.34c23.52-71.62 77.17-96 77.17-96s53.65 24.38 77.17 96z" fill="#e74444"/><g fill="#d9dbdd"><circle cx="256" cy="208" r="56"/><path d="m192 320-58.51 45.508a32 32 0 0 0 -12.272 27.539l6.782 94.953 32-80 64-24z"/><path d="m320 320 58.51 45.508a32 32 0 0 1 12.272 27.539l-6.782 94.953-32-80-64-24z"/></g><path d="m331.95 296a642.4 642.4 0 0 1 -23.18 80h-105.54a642.4 642.4 0 0 1 -23.18-80z" fill="#e74444"/><path d="m308.77 376c-7.28 20.09-12.77 32-12.77 32h-80s-5.49-11.91-12.77-32z" fill="#7e8488"/><circle cx="256" cy="208" fill="#e74444" r="24"/><path d="m233.759 345.592 6.241 62.408 16 80 16-80 6.241-62.408a16 16 0 0 0 -15.921-17.592h-12.64a16 16 0 0 0 -15.921 17.592z" fill="#d9dbdd"/><path d="m383.421 359.193-49.136-38.217c9.606-37.024 17.715-82.139 17.715-128.976 0-68.543-24.957-112.425-45.893-137.168-22.9-27.061-45.832-37.677-46.8-38.115a8.011 8.011 0 0 0 -6.622 0c-.964.438-23.9 11.054-46.8 38.115-20.928 24.743-45.885 68.625-45.885 137.168 0 46.837 8.109 91.952 17.715 128.976l-49.137 38.217a39.93 39.93 0 0 0 -15.34 34.424l6.783 94.953a8 8 0 0 0 15.407 2.4l30.688-76.72 37.77-14.164c2.7 6.56 4.494 10.494 4.85 11.266a8 8 0 0 0 7.264 4.648h17.441l14.714 73.569a8 8 0 0 0 15.69 0l14.714-73.569h17.441a8 8 0 0 0 7.264-4.647c.356-.772 2.151-4.706 4.85-11.266l37.77 14.164 30.688 76.72a8 8 0 0 0 15.407-2.4l6.783-94.953a39.928 39.928 0 0 0 -15.341-34.425zm-80.355 8.807h-19.026l2.161-21.612a24 24 0 0 0 -23.881-26.388h-12.64a24 24 0 0 0 -23.88 26.388l2.16 21.612h-19.038a642.5 642.5 0 0 1 -18.785-64h131.712a643.894 643.894 0 0 1 -18.783 64zm-85.491-302.2c15.763-18.824 31.724-29 38.439-32.778 6.627 3.71 22.194 13.609 37.879 32.146a168.449 168.449 0 0 1 27.771 46.832h-131.509a168.1 168.1 0 0 1 27.42-46.2zm-32.926 62.2h142.537c5.351 18.045 8.814 39.26 8.814 64 0 33.508-4.436 66.435-10.588 96h-138.836c-6.145-29.552-10.576-62.474-10.576-96q0-34.644 8.649-64zm-27.458 272.51a7.994 7.994 0 0 0 -4.619 4.519l-19.072 47.681-4.3-60.233a23.962 23.962 0 0 1 9.2-20.655l43.892-34.137c5.477 18.974 11.092 35.164 15.74 47.51zm57.6-16.51h14.769l1.6 16h-9.93c-1.499-3.519-3.744-8.957-6.443-16zm55.494-39.2-6.2 62.018-8.085 40.39-8.078-40.394-6.2-62.018a8 8 0 0 1 7.961-8.8h12.64a8 8 0 0 1 7.961 8.8zm20.482 55.2h-9.927l1.6-16h14.76c-2.692 7.042-4.935 12.481-6.433 16zm92.036-7.523-4.3 60.233-19.072-47.681a7.994 7.994 0 0 0 -4.619-4.519l-40.845-15.31c4.648-12.346 10.263-28.536 15.74-47.51l43.893 34.132a23.962 23.962 0 0 1 9.2 20.655z"/><path d="m256 240a32 32 0 1 0 -32-32 32.036 32.036 0 0 0 32 32zm0-48a16 16 0 1 1 -16 16 16.019 16.019 0 0 1 16-16z"/><path d="m256 272a64 64 0 1 0 -64-64 64.072 64.072 0 0 0 64 64zm0-112a48 48 0 1 1 -48 48 48.053 48.053 0 0 1 48-48z"/></svg>