<?xml version="1.0"?>
<svg xmlns="http://www.w3.org/2000/svg" id="Filled" viewBox="0 0 512 512" width="512" height="512"><path d="M320,208l5.865-11.73A96,96,0,0,0,336,153.337v-4.223a96,96,0,0,0-24.966-64.576L256,24,200.966,84.538A96,96,0,0,0,176,149.114v4.223a96,96,0,0,0,10.135,42.933L192,208v16a32,32,0,0,1-32,32h0a64,64,0,0,0-64-64V328A160,160,0,0,0,256,488h0A160,160,0,0,0,416,328V192a64,64,0,0,0-64,64h0a32,32,0,0,1-32-32Z" style="fill:#eb423f"/><path d="M305.944,289.62,256,248l-49.944,41.62A128,128,0,0,0,160,387.952V392a96,96,0,0,0,96,96h0a96,96,0,0,0,96-96v-4.048A128,128,0,0,0,305.944,289.62Z" style="fill:#ff8e26"/><path d="M273.976,414.469,256,392l-17.976,22.469A64,64,0,0,0,224,454.45V456a32,32,0,0,0,32,32h0a32,32,0,0,0,32-32v-1.55A64,64,0,0,0,273.976,414.469Z" style="fill:#ffb632"/><path d="M416,184a72.107,72.107,0,0,0-71.418,62.827A24.043,24.043,0,0,1,328,224V209.889l5.02-10.041A104.518,104.518,0,0,0,344,153.337v-4.223a103.789,103.789,0,0,0-27.046-69.958L261.919,18.619a8,8,0,0,0-11.838,0L195.046,79.156A103.789,103.789,0,0,0,168,149.114v4.223a104.53,104.53,0,0,0,10.979,46.511L184,209.889V224a24.043,24.043,0,0,1-16.582,22.827A72.107,72.107,0,0,0,96,184a8,8,0,0,0-8,8V328c0,92.636,75.364,168,168,168s168-75.364,168-168V192A8,8,0,0,0,416,184ZM232,456v-1.55a56.2,56.2,0,0,1,12.271-34.983L256,404.806l11.729,14.661h0A56.2,56.2,0,0,1,280,454.45V456a24,24,0,0,1-48,0Zm60.653,15.994A39.765,39.765,0,0,0,296,456v-1.55a72.261,72.261,0,0,0-15.777-44.978L262.247,387a8,8,0,0,0-12.494,0l-17.975,22.47A72.256,72.256,0,0,0,216,454.45V456a39.765,39.765,0,0,0,3.347,15.994A88.118,88.118,0,0,1,168,392v-4.048a119.678,119.678,0,0,1,43.178-92.186L256,258.414l44.822,37.352A119.678,119.678,0,0,1,344,387.952V392A88.118,88.118,0,0,1,292.653,471.994ZM408,328a152.014,152.014,0,0,1-70.058,127.971A103.482,103.482,0,0,0,360,392v-4.048a135.637,135.637,0,0,0-48.935-104.478l-49.943-41.62a8,8,0,0,0-10.244,0l-49.943,41.62A135.637,135.637,0,0,0,152,387.952V392a103.482,103.482,0,0,0,22.058,63.971A152.014,152.014,0,0,1,104,328V200.57A56.087,56.087,0,0,1,152,256a8,8,0,0,0,8,8,40.045,40.045,0,0,0,40-40V208a7.994,7.994,0,0,0-.845-3.578l-5.865-11.73A88.443,88.443,0,0,1,184,153.337v-4.223a87.821,87.821,0,0,1,22.885-59.2L256,35.893l49.115,54.026A87.821,87.821,0,0,1,328,149.114v4.223a88.443,88.443,0,0,1-9.29,39.355l-5.865,11.73A7.994,7.994,0,0,0,312,208v16a40.045,40.045,0,0,0,40,40,8,8,0,0,0,8-8,56.087,56.087,0,0,1,48-55.43Z"/></svg>
